<svg xmlns="http://www.w3.org/2000/svg" version="1.1" xmlns:xlink="http://www.w3.org/1999/xlink" xmlns:svgjs="http://svgjs.dev/svgjs" width="1500" height="1500" viewBox="0 0 1500 1500"><rect width="1500" height="1500" fill="#ffffff"></rect><g transform="matrix(0.6666666666666666,0,0,0.6666666666666666,249.39393939393938,602.512599907819)"><svg viewBox="0 0 396 117" data-background-color="#ffffff" preserveAspectRatio="xMidYMid meet" height="443" width="1500" xmlns="http://www.w3.org/2000/svg" xmlns:xlink="http://www.w3.org/1999/xlink"><g id="tight-bounds" transform="matrix(1,0,0,1,0.2400000000000091,-0.07101869937298488)"><svg viewBox="0 0 395.52 117.142037398746" height="117.142037398746" width="395.52"><g><svg viewBox="0 0 611.8851751707814 181.22339217636005" height="117.142037398746" width="395.52"><g transform="matrix(1,0,0,1,216.3651751707814,53.397215376013854)"><svg viewBox="0 0 395.52 74.42896142433234" height="74.42896142433234" width="395.52"><g id="textblocktransform"><svg viewBox="0 0 395.52 74.42896142433234" height="74.42896142433234" width="395.52" id="textblock"><g><svg viewBox="0 0 395.52 74.42896142433234" height="74.42896142433234" width="395.52"><g transform="matrix(1,0,0,1,0,0)"><svg width="395.52" viewBox="-0.75 -37.35 202.18 38.050000000000004" height="74.42896142433234" data-palette-color="#000000"><path d="M-0.15-30.7L-0.5-30.7Q-0.5-32.95-0.75-35.15L-0.75-35.15Q9.3-35 12.18-35 15.05-35 25.1-35.15L25.1-35.15Q24.75-32.1 24.75-30.7L24.75-30.7 24.4-30.7Q18.85-32.1 14.95-32.2L14.95-32.2Q14.7-29.6 14.7-24.15L14.7-24.15 14.7-10.4Q14.7-3.65 15.45-0.35L15.45-0.35 15.45 0 8.9 0 8.9-0.35Q9.55-3.6 9.55-10.2L9.55-10.2 9.55-23.95Q9.55-29.6 9.3-32.2L9.3-32.2Q5.5-32.1-0.15-30.7L-0.15-30.7ZM37.6-5.3L37.6-10Q35.55-10.75 32.87-10.75 30.2-10.75 29-9.9L29-9.9Q28.25-8.75 28.25-6.83 28.25-4.9 29.3-3.8 30.35-2.7 31.92-2.7 33.5-2.7 35.15-3.53 36.8-4.35 37.6-5.3L37.6-5.3ZM38.4-2.8L38.4-2.8Q35.35 0.55 31.52 0.55 27.7 0.55 25.52-1.1 23.35-2.75 23.35-6.43 23.35-10.1 25.92-11.7 28.5-13.3 33.2-13.3L33.2-13.3 37.6-13.15 37.6-16Q37.6-18.65 36.3-20.3 35-21.95 32.35-21.95L32.35-21.95Q30.4-21.9 26.1-18.2L26.1-18.2Q24.65-20.05 24.05-23L24.05-23Q29-24.6 33.15-24.6 37.3-24.6 39.8-22.45 42.3-20.3 42.3-16.35L42.3-16.35 42.3-7.95Q42.35-5.7 43.02-3.78 43.7-1.85 44.8-1.1L44.8-1.1 44.9-0.6 39.55 0.7Q38.9-0.9 38.4-2.8ZM56.59-0.6L56.59 0 50.25 0 50.25-0.6Q51.09-3.1 51.09-8.5L51.09-8.5 51.09-29.35Q51.09-33.35 48.8-35.55L48.8-35.55 48.8-36.15 55.65-37.35 55.95-36.85Q55.8-35.4 55.8-32.7L55.8-32.7 55.8-15.1 64.3-22.2Q65.7-23.35 65.7-24L65.7-24 71.45-24 71.45-23.4Q70.5-23.3 66.75-20.3L66.75-20.3 59.65-14.2 65.9-7.5Q69.34-3.7 70.84-2.4 72.34-1.1 73.75-0.6L73.75-0.6 73.75 0 66.3 0Q66.3-0.1 55.8-12.6L55.8-12.6 55.8-8.5Q55.8-2.95 56.59-0.6L56.59-0.6ZM85.34 0.55L85.34 0.55Q80.09 0.55 77.14-2.7 74.19-5.95 74.19-11.28 74.19-16.6 77.49-20.6 80.79-24.6 85.69-24.6L85.69-24.6Q94.64-24.6 94.64-13.55L94.64-13.55 92.79-11.75 79.49-11.75Q79.49-7.55 81.29-5.45 83.09-3.35 86.14-3.35L86.14-3.35Q87.34-3.35 89.54-4.08 91.74-4.8 93.44-5.8L93.44-5.8 94.69-3.9Q93.74-2.95 90.57-1.2 87.39 0.55 85.34 0.55ZM84.79-22.1L84.79-22.1Q82.69-22.1 81.54-21.15L81.54-21.15Q80.59-19.85 80.04-17.85 79.49-15.85 79.49-14.35L79.49-14.35 89.74-14.75Q89.74-22.1 84.79-22.1ZM105.34-0.35L105.34 0 100.29 0 100.29-0.35Q101.04-3.65 101.04-11.95L101.04-11.95 101.04-23.15Q101.04-30.85 100.39-34.65L100.39-34.65 100.39-35 106.44-35.45 123.94-8.25 123.94-24.5Q123.94-27.15 123.64-30.28 123.34-33.4 122.89-34.65L122.89-34.65 122.89-35 128.14-35 128.14-34.65Q127.39-31.35 127.39-23.05L127.39-23.05 127.39-10.5Q127.39-7.5 127.62-4.08 127.84-0.65 128.04 0L128.04 0 123.34 0.5 104.44-28.75 104.44-10.5Q104.44-3.85 105.34-0.35L105.34-0.35ZM145.74 0.6Q140.49 0.6 137.44-2.73 134.39-6.05 134.39-11.43 134.39-16.8 137.94-20.7 141.49-24.6 146.86-24.6 152.24-24.6 155.16-21.35 158.09-18.1 158.09-12.65 158.09-7.2 154.54-3.3 150.99 0.6 145.74 0.6ZM152.79-11.4L152.79-11.4Q152.79-16.35 151.24-19.05 149.69-21.75 145.74-21.75L145.74-21.75Q143.19-21.75 141.74-20.65L141.74-20.65Q140.84-19.5 140.26-17.15 139.69-14.8 139.69-12.65L139.69-12.65Q139.69-2.2 147.09-2.2L147.09-2.2Q149.39-2.2 150.84-3.25L150.84-3.25Q151.79-4.4 152.29-6.8 152.79-9.2 152.79-11.4ZM170.38-21.2L170.38-5.6Q170.38-2.95 171.98-2.95L171.98-2.95Q173.34-2.95 176.53-4.55L176.53-4.55 177.59-2.8Q175.98-1.7 173.59-0.58 171.19 0.55 169.19 0.55 167.19 0.55 166.44-0.7 165.69-1.95 165.69-4.3L165.69-4.3 165.69-21.15 161.19-20.9 162.38-24.15Q163.28-24.05 165.59-23.95L165.59-23.95Q165.48-26.45 165.28-28.45L165.28-28.45 170.38-29.75 170.38-24Q173.09-24.1 177.73-24.6L177.73-24.6 176.34-20.7Q173.63-21.1 170.38-21.2L170.38-21.2ZM192.08 0.55L192.08 0.55Q186.83 0.55 183.88-2.7 180.93-5.95 180.93-11.28 180.93-16.6 184.23-20.6 187.53-24.6 192.43-24.6L192.43-24.6Q201.38-24.6 201.38-13.55L201.38-13.55 199.53-11.75 186.23-11.75Q186.23-7.55 188.03-5.45 189.83-3.35 192.88-3.35L192.88-3.35Q194.08-3.35 196.28-4.08 198.48-4.8 200.18-5.8L200.18-5.8 201.43-3.9Q200.48-2.95 197.31-1.2 194.13 0.55 192.08 0.55ZM191.53-22.1L191.53-22.1Q189.43-22.1 188.28-21.15L188.28-21.15Q187.33-19.85 186.78-17.85 186.23-15.85 186.23-14.35L186.23-14.35 196.48-14.75Q196.48-22.1 191.53-22.1Z" opacity="1" transform="matrix(1,0,0,1,0,0)" fill="#000000" class="wordmark-text-0" data-fill-palette-color="primary" id="text-0"></path></svg></g></svg></g></svg></g></svg></g><g><svg viewBox="0 0 181.22339217636005 181.22339217636005" height="181.22339217636005" width="181.22339217636005"><g><svg></svg></g><g id="icon-0"><svg viewBox="0 0 181.22339217636005 181.22339217636005" height="181.22339217636005" width="181.22339217636005"><g><path d="M0 90.612c0-50.043 40.568-90.612 90.612-90.612 50.043 0 90.612 40.568 90.611 90.612 0 50.043-40.568 90.612-90.611 90.611-50.043 0-90.612-40.568-90.612-90.611zM90.612 174.511c46.336 0 83.9-37.563 83.899-83.899 0-46.336-37.563-83.9-83.899-83.9-46.336 0-83.9 37.563-83.9 83.9 0 46.336 37.563 83.9 83.9 83.899z" data-fill-palette-color="accent" fill="#000000" stroke="transparent"></path></g><g transform="matrix(1,0,0,1,38.17487433873868,51.31536334425309)"><svg viewBox="0 0 104.87364349888269 78.59266548785386" height="78.59266548785386" width="104.87364349888269"><g><svg xmlns="http://www.w3.org/2000/svg" xmlns:xlink="http://www.w3.org/1999/xlink" version="1.1" x="0" y="0" viewBox="13.109 23.551 75.42800000000001 56.525999999999996" style="enable-background:new 0 0 100 100;" xml:space="preserve" height="78.59266548785386" width="104.87364349888269" class="icon-dxe-0" data-fill-palette-color="accent" id="dxe-0"><g fill="#000000" data-fill-palette-color="accent"><g fill="#000000" data-fill-palette-color="accent"><path d="M48.049 34.971H42.919A1.281 1.281 0 1 1 42.919 32.407H48.049A1.281 1.281 0 1 1 48.049 34.971" fill="#000000" data-fill-palette-color="accent"></path></g><g fill="#000000" data-fill-palette-color="accent"><path d="M71.133 40.101H45.485A1.281 1.281 0 1 1 45.485 37.537H71.134A1.281 1.281 0 1 1 71.133 40.101" fill="#000000" data-fill-palette-color="accent"></path></g><g fill="#000000" data-fill-palette-color="accent"><path d="M69.851 45.231H41.637A1.281 1.281 0 1 1 41.637 42.667H69.851A1.281 1.281 0 1 1 69.851 45.231" fill="#000000" data-fill-palette-color="accent"></path></g><g fill="#000000" data-fill-palette-color="accent"><path d="M71.133 50.361H41.637A1.281 1.281 0 1 1 41.637 47.797H71.133A1.281 1.281 0 1 1 71.133 50.361" fill="#000000" data-fill-palette-color="accent"></path></g><g fill="#000000" data-fill-palette-color="accent"><path d="M68.568 55.49H41.637A1.281 1.281 0 1 1 41.637 52.926H68.568A1.281 1.281 0 1 1 68.568 55.49" fill="#000000" data-fill-palette-color="accent"></path></g><path d="M88.536 36.722L78.776 36.651 78.797 33.78 85.665 33.83V29.204A2.784 2.784 0 0 0 82.884 26.423V23.552A5.66 5.66 0 0 1 88.537 29.205z" fill="#000000" data-fill-palette-color="accent"></path><path d="M72.685 69.519C71.127 69.519 70.212 68.887 69.72 68.357 68.651 67.207 68.729 65.696 68.741 65.527 68.737 64.098 67.49 62.851 65.956 62.851V59.98A5.66 5.66 0 0 1 71.609 65.633C71.603 65.829 71.635 66.209 71.831 66.411 72.021 66.609 72.401 66.649 72.686 66.649V69.519z" fill="#000000" data-fill-palette-color="accent"></path><path d="M75.047 69.49H60.333V65.632C60.333 64.621 60.599 63.672 61.065 62.851H31.951V29.204A5.66 5.66 0 0 1 37.604 23.551H83.482V26.422A2.784 2.784 0 0 0 80.701 29.203V63.837A5.66 5.66 0 0 1 75.047 69.49M63.204 66.619H75.047A2.784 2.784 0 0 0 77.828 63.838V29.204C77.828 28.194 78.094 27.244 78.56 26.423H37.604A2.784 2.784 0 0 0 34.823 29.204V59.98H65.986V62.851A2.784 2.784 0 0 0 63.205 65.632z" fill="#000000" data-fill-palette-color="accent"></path><path d="M57.551 80.077H13.109V77.206A2.784 2.784 0 0 0 15.89 74.425V65.632A5.66 5.66 0 0 1 21.543 59.979H65.985V62.85A2.784 2.784 0 0 0 63.204 65.631V74.424A5.66 5.66 0 0 1 57.551 80.077M18.029 77.206H57.551A2.784 2.784 0 0 0 60.332 74.425V65.632C60.332 64.621 60.598 63.672 61.064 62.851H21.543A2.784 2.784 0 0 0 18.762 65.632V74.425C18.762 75.436 18.495 76.385 18.029 77.206" fill="#000000" data-fill-palette-color="accent"></path></g></svg></g></svg></g></svg></g></svg></g></svg></g><defs></defs></svg><rect width="395.52" height="117.142037398746" fill="none" stroke="none" visibility="hidden"></rect></g></svg></g></svg>